<mxfile host="65bd71144e">
    <diagram id="XBZkKGUhNmOw-WFbVLSd" name="Page-1">
        <mxGraphModel dx="2553" dy="1110" grid="1" gridSize="10" guides="1" tooltips="1" connect="1" arrows="1" fold="1" page="1" pageScale="1" pageWidth="850" pageHeight="1100" math="0" shadow="0">
            <root>
                <mxCell id="0"/>
                <mxCell id="1" parent="0"/>
                <mxCell id="2" value="" style="verticalLabelPosition=bottom;verticalAlign=top;html=1;shape=mxgraph.basic.rect;fillColor2=none;strokeWidth=1;size=20;indent=5;fillColor=#FFFFFF;strokeColor=#36393d;" vertex="1" parent="1">
                    <mxGeometry x="90" y="140" width="680" height="830" as="geometry"/>
                </mxCell>
                <mxCell id="3" value="&lt;p style=&quot;line-height: 1.2&quot;&gt;&lt;span style=&quot;font-size: 24px&quot;&gt;&amp;nbsp; &amp;nbsp;Pizza cost.&lt;/span&gt;&lt;/p&gt;" style="shape=partialRectangle;whiteSpace=wrap;html=1;top=0;left=0;fillColor=#FFFFFF;align=left;fontColor=#000000;strokeColor=#000000;" vertex="1" parent="1">
                    <mxGeometry x="90" y="80" width="680" height="60" as="geometry"/>
                </mxCell>
                <mxCell id="4" value="&lt;h1 style=&quot;padding: 0px ; line-height: 1.35 ; margin: 24px 0px 24px 40px ; letter-spacing: -0.02em ; font-weight: 400 ; font-size: 20px ; font-family: &amp;#34;roboto&amp;#34; , &amp;#34;helvetica&amp;#34; , &amp;#34;arial&amp;#34; , sans-serif ; color: rgba(0 , 0 , 0 , 0.87)&quot;&gt;&amp;nbsp; &amp;nbsp;Choose the size, and choose the toppings.&lt;/h1&gt;" style="text;whiteSpace=wrap;html=1;fontSize=24;" vertex="1" parent="1">
                    <mxGeometry x="80" y="277.5" width="570" height="50" as="geometry"/>
                </mxCell>
                <mxCell id="5" value="" style="verticalLabelPosition=bottom;verticalAlign=top;html=1;shape=mxgraph.basic.patternFillRect;fillStyle=diagGrid;step=5;fillStrokeWidth=0.2;fillStrokeColor=#dddddd;" vertex="1" parent="1">
                    <mxGeometry x="120" y="165" width="230" height="125" as="geometry"/>
                </mxCell>
                <mxCell id="6" value="&lt;font face=&quot;helvetica, arial, sans-serif&quot; color=&quot;#000000&quot;&gt;*IMAGE*&lt;/font&gt;" style="text;whiteSpace=wrap;html=1;fontSize=24;strokeWidth=22;" vertex="1" parent="1">
                    <mxGeometry x="180" y="200" width="155" height="77.5" as="geometry"/>
                </mxCell>
                <mxCell id="7" value="&lt;font style=&quot;font-size: 14px&quot; color=&quot;#000000&quot;&gt;COMMIT&lt;/font&gt;" style="labelPosition=center;verticalLabelPosition=middle;align=center;html=1;shape=mxgraph.basic.shaded_button;dx=10;fontSize=24;" vertex="1" parent="1">
                    <mxGeometry x="125" y="640" width="100" height="40" as="geometry"/>
                </mxCell>
                <mxCell id="10" value="&lt;p style=&quot;padding: 0px ; font-weight: 400 ; line-height: 24px ; font-size: 21px ; letter-spacing: normal ; margin: 0px 0px 16px ; color: rgba(0 , 0 , 0 , 0.87) ; font-family: &amp;#34;helvetica&amp;#34; , &amp;#34;arial&amp;#34; , sans-serif ; font-style: normal ; text-indent: 0px ; text-transform: none ; word-spacing: 0px&quot;&gt;Choose the size of the pizza:&lt;/p&gt;&lt;form action=&quot;https://evgeny-vovk.github.io/ICS2O-Unit5-08-HTML/&quot; style=&quot;color: rgba(0 , 0 , 0 , 0.87) ; font-family: &amp;#34;helvetica&amp;#34; , &amp;#34;arial&amp;#34; , sans-serif ; font-size: 14px ; font-style: normal ; font-weight: 400 ; letter-spacing: normal ; text-indent: 0px ; text-transform: none ; word-spacing: 0px&quot;&gt;&lt;div class=&quot;mdl-textfield mdl-js-textfield is-upgraded is-dirty&quot; style=&quot;position: relative ; font-size: 16px ; display: inline-block ; box-sizing: border-box ; width: 300px ; max-width: 100% ; margin: 0px ; padding: 20px 0px&quot;&gt;&lt;/div&gt;&lt;/form&gt;" style="text;whiteSpace=wrap;html=1;" vertex="1" parent="1">
                    <mxGeometry x="120" y="360" width="270" height="30" as="geometry"/>
                </mxCell>
                <mxCell id="11" value="&lt;p style=&quot;padding: 0px ; font-weight: 400 ; line-height: 24px ; font-size: 21px ; letter-spacing: normal ; margin: 0px 0px 16px ; color: rgba(0 , 0 , 0 , 0.87) ; font-family: &amp;#34;helvetica&amp;#34; , &amp;#34;arial&amp;#34; , sans-serif ; font-style: normal ; text-indent: 0px ; text-transform: none ; word-spacing: 0px&quot;&gt;Choose how many toppings you want here:&lt;/p&gt;" style="text;whiteSpace=wrap;html=1;" vertex="1" parent="1">
                    <mxGeometry x="120" y="460" width="410" height="30" as="geometry"/>
                </mxCell>
                <mxCell id="12" value="" style="verticalLabelPosition=bottom;verticalAlign=top;html=1;shape=mxgraph.basic.donut;dx=25;" vertex="1" parent="1">
                    <mxGeometry x="125" y="410" width="10" height="10" as="geometry"/>
                </mxCell>
                <mxCell id="13" value="" style="verticalLabelPosition=bottom;verticalAlign=top;html=1;shape=mxgraph.basic.donut;dx=25;" vertex="1" parent="1">
                    <mxGeometry x="125" y="440" width="10" height="10" as="geometry"/>
                </mxCell>
                <mxCell id="14" value="&lt;p style=&quot;padding: 0px ; font-weight: 400 ; line-height: 24px ; letter-spacing: normal ; margin: 0px 0px 16px ; color: rgba(0 , 0 , 0 , 0.87) ; font-family: &amp;#34;helvetica&amp;#34; , &amp;#34;arial&amp;#34; , sans-serif ; font-style: normal ; text-indent: 0px ; text-transform: none ; word-spacing: 0px&quot;&gt;&lt;font style=&quot;font-size: 11px&quot;&gt;Large, $6.00&lt;/font&gt;&lt;/p&gt;" style="text;whiteSpace=wrap;html=1;" vertex="1" parent="1">
                    <mxGeometry x="140" y="400" width="70" height="30" as="geometry"/>
                </mxCell>
                <mxCell id="15" value="&lt;p style=&quot;padding: 0px ; font-weight: 400 ; line-height: 24px ; letter-spacing: normal ; margin: 0px 0px 16px ; color: rgba(0 , 0 , 0 , 0.87) ; font-family: &amp;#34;helvetica&amp;#34; , &amp;#34;arial&amp;#34; , sans-serif ; font-style: normal ; text-indent: 0px ; text-transform: none ; word-spacing: 0px&quot;&gt;&lt;font style=&quot;font-size: 11px&quot;&gt;Extra large, $10.00&lt;/font&gt;&lt;/p&gt;" style="text;whiteSpace=wrap;html=1;" vertex="1" parent="1">
                    <mxGeometry x="140" y="430" width="100" height="30" as="geometry"/>
                </mxCell>
                <mxCell id="17" value="&lt;p style=&quot;padding: 0px ; font-weight: 400 ; line-height: 24px ; letter-spacing: normal ; margin: 0px 0px 16px ; color: rgba(0 , 0 , 0 , 0.87) ; font-family: &amp;#34;helvetica&amp;#34; , &amp;#34;arial&amp;#34; , sans-serif ; font-style: normal ; text-indent: 0px ; text-transform: none ; word-spacing: 0px&quot;&gt;&lt;font style=&quot;font-size: 11px&quot;&gt;1 Topping, $1.00&lt;/font&gt;&lt;/p&gt;" style="text;whiteSpace=wrap;html=1;" vertex="1" parent="1">
                    <mxGeometry x="140" y="500" width="100" height="30" as="geometry"/>
                </mxCell>
                <mxCell id="18" value="&lt;p style=&quot;padding: 0px ; font-weight: 400 ; line-height: 24px ; letter-spacing: normal ; margin: 0px 0px 16px ; color: rgba(0 , 0 , 0 , 0.87) ; font-family: &amp;#34;helvetica&amp;#34; , &amp;#34;arial&amp;#34; , sans-serif ; font-style: normal ; text-indent: 0px ; text-transform: none ; word-spacing: 0px&quot;&gt;&lt;font style=&quot;font-size: 11px&quot;&gt;2 Toppings, $1.75&lt;/font&gt;&lt;/p&gt;" style="text;whiteSpace=wrap;html=1;" vertex="1" parent="1">
                    <mxGeometry x="135" y="530" width="100" height="30" as="geometry"/>
                </mxCell>
                <mxCell id="20" value="&lt;p style=&quot;padding: 0px ; font-weight: 400 ; line-height: 24px ; letter-spacing: normal ; margin: 0px 0px 16px ; color: rgba(0 , 0 , 0 , 0.87) ; font-family: &amp;#34;helvetica&amp;#34; , &amp;#34;arial&amp;#34; , sans-serif ; font-style: normal ; text-indent: 0px ; text-transform: none ; word-spacing: 0px&quot;&gt;&lt;font style=&quot;font-size: 11px&quot;&gt;3 Toppings, $2.50&lt;/font&gt;&lt;/p&gt;" style="text;whiteSpace=wrap;html=1;" vertex="1" parent="1">
                    <mxGeometry x="135" y="560" width="100" height="30" as="geometry"/>
                </mxCell>
                <mxCell id="21" value="&lt;p style=&quot;padding: 0px ; font-weight: 400 ; line-height: 24px ; letter-spacing: normal ; margin: 0px 0px 16px ; color: rgba(0 , 0 , 0 , 0.87) ; font-family: &amp;#34;helvetica&amp;#34; , &amp;#34;arial&amp;#34; , sans-serif ; font-style: normal ; text-indent: 0px ; text-transform: none ; word-spacing: 0px&quot;&gt;&lt;font style=&quot;font-size: 11px&quot;&gt;4 Toppings, $3.35&lt;/font&gt;&lt;/p&gt;" style="text;whiteSpace=wrap;html=1;" vertex="1" parent="1">
                    <mxGeometry x="135" y="590" width="100" height="30" as="geometry"/>
                </mxCell>
                <mxCell id="22" value="" style="verticalLabelPosition=bottom;verticalAlign=top;html=1;shape=mxgraph.basic.donut;dx=25;" vertex="1" parent="1">
                    <mxGeometry x="125" y="510" width="10" height="10" as="geometry"/>
                </mxCell>
                <mxCell id="23" value="" style="verticalLabelPosition=bottom;verticalAlign=top;html=1;shape=mxgraph.basic.donut;dx=25;" vertex="1" parent="1">
                    <mxGeometry x="125" y="540" width="10" height="10" as="geometry"/>
                </mxCell>
                <mxCell id="24" value="" style="verticalLabelPosition=bottom;verticalAlign=top;html=1;shape=mxgraph.basic.donut;dx=25;" vertex="1" parent="1">
                    <mxGeometry x="125" y="570" width="10" height="10" as="geometry"/>
                </mxCell>
                <mxCell id="25" value="" style="verticalLabelPosition=bottom;verticalAlign=top;html=1;shape=mxgraph.basic.donut;dx=25;" vertex="1" parent="1">
                    <mxGeometry x="125" y="600" width="10" height="10" as="geometry"/>
                </mxCell>
            </root>
        </mxGraphModel>
    </diagram>
</mxfile>